<svg width="18" height="18" viewBox="0 0 18 18" fill="none" xmlns="http://www.w3.org/2000/svg">
<path fill-rule="evenodd" clip-rule="evenodd" d="M16.8481 1.61247L16.842 1.60616C16.6752 1.43336 16.3276 1.43336 16.1608 1.60616L16.1547 1.61247L11.8666 5.90055L2.67439 3.78003L2.61285 3.84114L10.0384 7.74879L4.85273 12.9345L3.19681 12.6894L4.86743 13.6163L5.77323 15.2529L5.53949 13.6493L10.7574 8.43139L14.635 15.8569L14.6929 15.7986L12.5724 6.60633L16.8603 2.31841C17.0484 2.13359 17.0571 1.82152 16.8543 1.61867L16.8481 1.61247ZM15.7914 16.1116L13.6714 6.92156L17.5614 3.03156C18.1514 2.45156 18.1514 1.50156 17.5614 0.911563C17.0014 0.331563 16.0014 0.331563 15.4414 0.911563L11.5514 4.80156L2.36141 2.68156L0.941406 4.09156L8.37141 8.00156L4.50141 11.8716L2.00141 11.5016L0.941406 12.5816L4.13141 14.3516L5.89141 17.5316L6.96141 16.4716L6.60141 14.0016L10.5014 10.1016L14.3814 17.5316L15.7914 16.1116Z" fill="black"/>
</svg>
