<svg width="32" height="32" viewBox="0 0 32 32" fill="none" xmlns="http://www.w3.org/2000/svg">
<g opacity="0.5" filter="url(#filter0_d_6337_7754)">
<rect x="4" y="4" width="24" height="24" rx="12" fill="white"/>
<path fill-rule="evenodd" clip-rule="evenodd" d="M11.1667 11.5C11.1225 11.5 11.0801 11.5176 11.0488 11.5488C11.0176 11.5801 11 11.6225 11 11.6667V14.3333C11 14.3775 11.0176 14.4199 11.0488 14.4512C11.0801 14.4824 11.1225 14.5 11.1667 14.5H13.8333C13.8775 14.5 13.9199 14.4824 13.9512 14.4512C13.9824 14.4199 14 14.3775 14 14.3333V11.6667C14 11.6225 13.9824 11.5801 13.9512 11.5488C13.9199 11.5176 13.8775 11.5 13.8333 11.5H11.1667ZM10.3417 10.8417C10.5605 10.6229 10.8572 10.5 11.1667 10.5H13.8333C14.1428 10.5 14.4395 10.6229 14.6583 10.8417C14.8771 11.0605 15 11.3572 15 11.6667V14.3333C15 14.6428 14.8771 14.9395 14.6583 15.1583C14.4395 15.3771 14.1428 15.5 13.8333 15.5H11.1667C10.8572 15.5 10.5605 15.3771 10.3417 15.1583C10.1229 14.9395 10 14.6428 10 14.3333V11.6667C10 11.3572 10.1229 11.0605 10.3417 10.8417ZM16.6667 11.6667C16.6667 11.3905 16.8905 11.1667 17.1667 11.1667H22.5C22.7761 11.1667 23 11.3905 23 11.6667C23 11.9428 22.7761 12.1667 22.5 12.1667H17.1667C16.8905 12.1667 16.6667 11.9428 16.6667 11.6667ZM16.6667 14.3333C16.6667 14.0572 16.8905 13.8333 17.1667 13.8333H20.5C20.7761 13.8333 21 14.0572 21 14.3333C21 14.6095 20.7761 14.8333 20.5 14.8333H17.1667C16.8905 14.8333 16.6667 14.6095 16.6667 14.3333ZM11.1667 18.1667C11.1225 18.1667 11.0801 18.1842 11.0488 18.2155C11.0176 18.2467 11 18.2891 11 18.3333V21C11 21.0442 11.0176 21.0866 11.0488 21.1179C11.0801 21.1491 11.1225 21.1667 11.1667 21.1667H13.8333C13.8775 21.1667 13.9199 21.1491 13.9512 21.1179C13.9824 21.0866 14 21.0442 14 21V18.3333C14 18.2891 13.9824 18.2467 13.9512 18.2155C13.9199 18.1842 13.8775 18.1667 13.8333 18.1667H11.1667ZM10.3417 17.5084C10.5605 17.2896 10.8572 17.1667 11.1667 17.1667H13.8333C14.1428 17.1667 14.4395 17.2896 14.6583 17.5084C14.8771 17.7272 15 18.0239 15 18.3333V21C15 21.3094 14.8771 21.6062 14.6583 21.825C14.4395 22.0438 14.1428 22.1667 13.8333 22.1667H11.1667C10.8572 22.1667 10.5605 22.0438 10.3417 21.825C10.1229 21.6062 10 21.3094 10 21V18.3333C10 18.0239 10.1229 17.7272 10.3417 17.5084ZM16.6667 18.3333C16.6667 18.0572 16.8905 17.8333 17.1667 17.8333H22.5C22.7761 17.8333 23 18.0572 23 18.3333C23 18.6095 22.7761 18.8333 22.5 18.8333H17.1667C16.8905 18.8333 16.6667 18.6095 16.6667 18.3333ZM16.6667 21C16.6667 20.7239 16.8905 20.5 17.1667 20.5H20.5C20.7761 20.5 21 20.7239 21 21C21 21.2761 20.7761 21.5 20.5 21.5H17.1667C16.8905 21.5 16.6667 21.2761 16.6667 21Z" fill="black"/>
</g>
<defs>
<filter id="filter0_d_6337_7754" x="0" y="0" width="32" height="32" filterUnits="userSpaceOnUse" color-interpolation-filters="sRGB">
<feFlood flood-opacity="0" result="BackgroundImageFix"/>
<feColorMatrix in="SourceAlpha" type="matrix" values="0 0 0 0 0 0 0 0 0 0 0 0 0 0 0 0 0 0 127 0" result="hardAlpha"/>
<feOffset/>
<feGaussianBlur stdDeviation="2"/>
<feComposite in2="hardAlpha" operator="out"/>
<feColorMatrix type="matrix" values="0 0 0 0 0 0 0 0 0 0 0 0 0 0 0 0 0 0 0.25 0"/>
<feBlend mode="normal" in2="BackgroundImageFix" result="effect1_dropShadow_6337_7754"/>
<feBlend mode="normal" in="SourceGraphic" in2="effect1_dropShadow_6337_7754" result="shape"/>
</filter>
</defs>
</svg>
