<svg width="24" height="24" viewBox="0 0 24 24" fill="none" xmlns="http://www.w3.org/2000/svg">
<path d="M20.25 16.3783V16.8808C20.0634 19.3549 18.2288 21.2205 15.7472 21.3583H15.2719C14.1825 21.2658 13.2312 20.8608 12.4181 20.1433C12.3934 20.1215 12.3617 20.1095 12.3291 20.1095H3.41812C3.40669 20.1095 3.39572 20.1049 3.38763 20.0966C3.37954 20.0884 3.375 20.0772 3.375 20.0655V12.0302C3.375 11.9964 3.38375 11.9652 3.40125 11.9364L6.47344 7.02298C6.48114 7.01094 6.49179 7.00102 6.50441 6.99414C6.51702 6.98726 6.53119 6.98364 6.54562 6.98361L8.78813 6.98455C8.80163 6.98455 8.81487 6.98068 8.82632 6.97338C8.83778 6.96607 8.84696 6.95564 8.85281 6.9433L10.8516 2.65517C10.8544 2.64897 10.8584 2.64339 10.8634 2.63876C10.8684 2.63412 10.8743 2.63052 10.8807 2.62817C10.8872 2.62582 10.894 2.62476 10.9009 2.62505C10.9078 2.62534 10.9146 2.62697 10.9209 2.62986L16.5047 5.23423C16.5091 5.23625 16.513 5.23912 16.5163 5.24266C16.5196 5.24621 16.5221 5.25037 16.5237 5.2549C16.5254 5.25943 16.5261 5.26425 16.5259 5.26907C16.5257 5.27389 16.5246 5.27862 16.5225 5.28298L15.5475 7.37174C15.5403 7.38753 15.5371 7.40482 15.5383 7.42202C15.5394 7.43921 15.5448 7.45577 15.5541 7.47017L18.3478 11.9402C18.3659 11.9689 18.375 12.0005 18.375 12.0349L18.3741 12.8711C18.3741 12.9061 18.3878 12.9345 18.4153 12.9564C19.5097 13.8264 20.1213 14.967 20.25 16.3783ZM8.37937 9.43705C8.37714 9.44164 8.37612 9.44672 8.3764 9.45182C8.37668 9.45691 8.37825 9.46185 8.38097 9.46617C8.3837 9.47049 8.38747 9.47404 8.39195 9.47649C8.39643 9.47894 8.40146 9.48021 8.40656 9.48017H13.8572C13.8629 9.48021 13.8684 9.47865 13.8732 9.47566C13.878 9.47267 13.8819 9.46839 13.8844 9.4633L15.6947 5.5783C15.6964 5.57473 15.6975 5.57085 15.6977 5.56689C15.6979 5.56292 15.6974 5.55895 15.6961 5.5552C15.6948 5.55145 15.6927 5.548 15.6901 5.54504C15.6874 5.54209 15.6842 5.53969 15.6806 5.53798L11.2041 3.45205C11.2005 3.4503 11.1966 3.44927 11.1927 3.44903C11.1887 3.4488 11.1847 3.44935 11.181 3.45065C11.1772 3.45196 11.1738 3.454 11.1708 3.45666C11.1679 3.45931 11.1655 3.46252 11.1638 3.46611L8.37937 9.43705ZM15.2213 9.48017C15.229 9.48017 15.2364 9.48323 15.2418 9.48868C15.2473 9.49413 15.2503 9.50153 15.2503 9.50923L15.2531 10.0792C15.2531 10.0831 15.2524 10.0868 15.2509 10.0904C15.2495 10.0939 15.2473 10.0971 15.2446 10.0998C15.2419 10.1025 15.2387 10.1046 15.2352 10.1061C15.2317 10.1075 15.2279 10.1083 15.2241 10.1083H6.52594C6.51823 10.1083 6.51084 10.1052 6.50539 10.0998C6.49994 10.0943 6.49688 10.0869 6.49688 10.0792V9.50923C6.49688 9.50153 6.49994 9.49413 6.50539 9.48868C6.51084 9.48323 6.51823 9.48017 6.52594 9.48017L7.65188 9.48111C7.6574 9.48108 7.66281 9.47948 7.66746 9.47649C7.67211 9.4735 7.67581 9.46925 7.67813 9.46423L8.52375 7.64642C8.52579 7.642 8.52669 7.63714 8.52636 7.63229C8.52604 7.62743 8.5245 7.62274 8.52189 7.61863C8.51927 7.61453 8.51567 7.61114 8.51141 7.60879C8.50715 7.60644 8.50237 7.60519 8.4975 7.60517L6.86344 7.60611C6.85852 7.6062 6.8537 7.60753 6.84943 7.60999C6.84517 7.61245 6.8416 7.61596 6.83906 7.62017L4.13906 11.9383C4.13643 11.9427 4.13499 11.9477 4.13489 11.9528C4.1348 11.9579 4.13605 11.9629 4.13852 11.9674C4.14099 11.9718 4.1446 11.9756 4.14897 11.9782C4.15334 11.9808 4.15833 11.9823 4.16344 11.9824H17.5847C17.5898 11.9823 17.5948 11.9808 17.5992 11.9782C17.6035 11.9756 17.6071 11.9718 17.6096 11.9674C17.6121 11.9629 17.6133 11.9579 17.6132 11.9528C17.6131 11.9477 17.6117 11.9427 17.6091 11.9383L15.2381 8.1433C15.2353 8.13898 15.2313 8.13549 15.2267 8.13321C15.222 8.13093 15.2169 8.12992 15.2117 8.13031C15.2066 8.13069 15.2016 8.13244 15.1973 8.13538C15.1931 8.13833 15.1897 8.14235 15.1875 8.14705L14.5856 9.43892C14.5836 9.44334 14.5827 9.4482 14.583 9.45305C14.5833 9.45791 14.5849 9.46261 14.5875 9.46671C14.5901 9.47082 14.5937 9.4742 14.598 9.47655C14.6022 9.4789 14.607 9.48015 14.6119 9.48017H15.2213ZM11.7741 19.4242C10.1831 17.1545 10.7681 14.0861 13.1531 12.6564C13.2056 12.6252 13.2013 12.6095 13.14 12.6095H4.03125C4.02329 12.6095 4.01566 12.6127 4.01004 12.6183C4.00441 12.624 4.00125 12.6316 4.00125 12.6395V19.4327C4.00125 19.4458 4.00648 19.4585 4.0158 19.4678C4.02512 19.4771 4.03776 19.4824 4.05094 19.4824H11.7441C11.7909 19.4824 11.8009 19.463 11.7741 19.4242ZM19.6219 16.6699C19.6219 15.593 19.1941 14.5602 18.4326 13.7988C17.6712 13.0373 16.6384 12.6095 15.5616 12.6095C14.4847 12.6095 13.4519 13.0373 12.6905 13.7988C11.929 14.5602 11.5013 15.593 11.5013 16.6699C11.5013 17.7467 11.929 18.7795 12.6905 19.5409C13.4519 20.3024 14.4847 20.7302 15.5616 20.7302C16.6384 20.7302 17.6712 20.3024 18.4326 19.5409C19.1941 18.7795 19.6219 17.7467 19.6219 16.6699Z" fill="white"/>
<path d="M20.25 16.3783V16.8808C20.0634 19.3549 18.2288 21.2205 15.7472 21.3583H15.2719C14.1825 21.2658 13.2312 20.8608 12.4181 20.1433C12.3934 20.1215 12.3617 20.1095 12.3291 20.1095H3.41812C3.40669 20.1095 3.39572 20.1049 3.38763 20.0966C3.37954 20.0884 3.375 20.0772 3.375 20.0655V12.0302C3.375 11.9964 3.38375 11.9652 3.40125 11.9364L6.47344 7.02298C6.48114 7.01094 6.49179 7.00102 6.50441 6.99414C6.51702 6.98726 6.53119 6.98364 6.54562 6.98361L8.78813 6.98455C8.80163 6.98455 8.81487 6.98068 8.82632 6.97338C8.83778 6.96607 8.84696 6.95564 8.85281 6.9433L10.8516 2.65517C10.8544 2.64897 10.8584 2.64339 10.8634 2.63876C10.8684 2.63412 10.8743 2.63052 10.8807 2.62817C10.8872 2.62582 10.894 2.62476 10.9009 2.62505C10.9078 2.62534 10.9146 2.62697 10.9209 2.62986L16.5047 5.23423C16.5091 5.23625 16.513 5.23912 16.5163 5.24266C16.5196 5.24621 16.5221 5.25037 16.5237 5.2549C16.5254 5.25943 16.5261 5.26425 16.5259 5.26907C16.5257 5.27389 16.5246 5.27862 16.5225 5.28298L15.5475 7.37174C15.5403 7.38753 15.5371 7.40482 15.5383 7.42202C15.5394 7.43921 15.5448 7.45577 15.5541 7.47017L18.3478 11.9402C18.3659 11.9689 18.375 12.0005 18.375 12.0349L18.3741 12.8711C18.3741 12.9061 18.3878 12.9345 18.4153 12.9564C19.5097 13.8264 20.1213 14.967 20.25 16.3783ZM8.37937 9.43705C8.37714 9.44164 8.37612 9.44672 8.3764 9.45182C8.37668 9.45691 8.37825 9.46185 8.38097 9.46617C8.3837 9.47049 8.38747 9.47404 8.39195 9.47649C8.39643 9.47894 8.40146 9.48021 8.40656 9.48017H13.8572C13.8629 9.48021 13.8684 9.47865 13.8732 9.47566C13.878 9.47267 13.8819 9.46839 13.8844 9.4633L15.6947 5.5783C15.6964 5.57473 15.6975 5.57085 15.6977 5.56689C15.6979 5.56292 15.6974 5.55895 15.6961 5.5552C15.6948 5.55145 15.6927 5.548 15.6901 5.54504C15.6874 5.54209 15.6842 5.53969 15.6806 5.53798L11.2041 3.45205C11.2005 3.4503 11.1966 3.44927 11.1927 3.44903C11.1887 3.4488 11.1847 3.44935 11.181 3.45065C11.1772 3.45196 11.1738 3.454 11.1708 3.45666C11.1679 3.45931 11.1655 3.46252 11.1638 3.46611L8.37937 9.43705ZM15.2213 9.48017C15.229 9.48017 15.2364 9.48323 15.2418 9.48868C15.2473 9.49413 15.2503 9.50153 15.2503 9.50923L15.2531 10.0792C15.2531 10.0831 15.2524 10.0868 15.2509 10.0904C15.2495 10.0939 15.2473 10.0971 15.2446 10.0998C15.2419 10.1025 15.2387 10.1046 15.2352 10.1061C15.2317 10.1075 15.2279 10.1083 15.2241 10.1083H6.52594C6.51823 10.1083 6.51084 10.1052 6.50539 10.0998C6.49994 10.0943 6.49688 10.0869 6.49688 10.0792V9.50923C6.49688 9.50153 6.49994 9.49413 6.50539 9.48868C6.51084 9.48323 6.51823 9.48017 6.52594 9.48017L7.65188 9.48111C7.6574 9.48108 7.66281 9.47948 7.66746 9.47649C7.67211 9.4735 7.67581 9.46925 7.67813 9.46423L8.52375 7.64642C8.52579 7.642 8.52669 7.63714 8.52636 7.63229C8.52604 7.62743 8.5245 7.62274 8.52189 7.61863C8.51927 7.61453 8.51567 7.61114 8.51141 7.60879C8.50715 7.60644 8.50237 7.60519 8.4975 7.60517L6.86344 7.60611C6.85852 7.6062 6.8537 7.60753 6.84943 7.60999C6.84517 7.61245 6.8416 7.61596 6.83906 7.62017L4.13906 11.9383C4.13643 11.9427 4.13499 11.9477 4.13489 11.9528C4.1348 11.9579 4.13605 11.9629 4.13852 11.9674C4.14099 11.9718 4.1446 11.9756 4.14897 11.9782C4.15334 11.9808 4.15833 11.9823 4.16344 11.9824H17.5847C17.5898 11.9823 17.5948 11.9808 17.5992 11.9782C17.6035 11.9756 17.6071 11.9718 17.6096 11.9674C17.6121 11.9629 17.6133 11.9579 17.6132 11.9528C17.6131 11.9477 17.6117 11.9427 17.6091 11.9383L15.2381 8.1433C15.2353 8.13898 15.2313 8.13549 15.2267 8.13321C15.222 8.13093 15.2169 8.12992 15.2117 8.13031C15.2066 8.13069 15.2016 8.13244 15.1973 8.13538C15.1931 8.13833 15.1897 8.14235 15.1875 8.14705L14.5856 9.43892C14.5836 9.44334 14.5827 9.4482 14.583 9.45305C14.5833 9.45791 14.5849 9.46261 14.5875 9.46671C14.5901 9.47082 14.5937 9.4742 14.598 9.47655C14.6022 9.4789 14.607 9.48015 14.6119 9.48017H15.2213ZM11.7741 19.4242C10.1831 17.1545 10.7681 14.0861 13.1531 12.6564C13.2056 12.6252 13.2013 12.6095 13.14 12.6095H4.03125C4.02329 12.6095 4.01566 12.6127 4.01004 12.6183C4.00441 12.624 4.00125 12.6316 4.00125 12.6395V19.4327C4.00125 19.4458 4.00648 19.4585 4.0158 19.4678C4.02512 19.4771 4.03776 19.4824 4.05094 19.4824H11.7441C11.7909 19.4824 11.8009 19.463 11.7741 19.4242ZM19.6219 16.6699C19.6219 15.593 19.1941 14.5602 18.4326 13.7988C17.6712 13.0373 16.6384 12.6095 15.5616 12.6095C14.4847 12.6095 13.4519 13.0373 12.6905 13.7988C11.929 14.5602 11.5013 15.593 11.5013 16.6699C11.5013 17.7467 11.929 18.7795 12.6905 19.5409C13.4519 20.3024 14.4847 20.7302 15.5616 20.7302C16.6384 20.7302 17.6712 20.3024 18.4326 19.5409C19.1941 18.7795 19.6219 17.7467 19.6219 16.6699Z" fill="#17202C"/>
<path d="M14.7087 17.7485L17.7453 14.711C17.7489 14.7073 17.7533 14.7043 17.7581 14.7023C17.763 14.7003 17.7681 14.6992 17.7734 14.6992C17.7786 14.6992 17.7838 14.7003 17.7886 14.7023C17.7935 14.7043 17.7978 14.7073 17.8015 14.711L18.1868 15.0973C18.1906 15.101 18.1935 15.1053 18.1956 15.1102C18.1976 15.115 18.1986 15.1202 18.1986 15.1254C18.1986 15.1307 18.1976 15.1358 18.1956 15.1407C18.1935 15.1455 18.1906 15.1499 18.1868 15.1535L14.7078 18.6326C14.7041 18.6363 14.6997 18.6393 14.6949 18.6413C14.6901 18.6434 14.6849 18.6444 14.6796 18.6444C14.6744 18.6444 14.6692 18.6434 14.6644 18.6413C14.6595 18.6393 14.6552 18.6363 14.6515 18.6326L12.9415 16.9217C12.9378 16.918 12.9348 16.9136 12.9328 16.9088C12.9307 16.904 12.9297 16.8988 12.9297 16.8935C12.9297 16.8883 12.9307 16.8831 12.9328 16.8783C12.9348 16.8735 12.9378 16.8691 12.9415 16.8654L13.3268 16.4773C13.3305 16.4735 13.3349 16.4706 13.3397 16.4685C13.3445 16.4665 13.3497 16.4655 13.3549 16.4655C13.3602 16.4655 13.3654 16.4665 13.3702 16.4685C13.375 16.4706 13.3794 16.4735 13.3831 16.4773L14.6524 17.7485C14.6561 17.7523 14.6605 17.7553 14.6653 17.7573C14.6701 17.7593 14.6753 17.7604 14.6806 17.7604C14.6858 17.7604 14.691 17.7593 14.6958 17.7573C14.7007 17.7553 14.705 17.7523 14.7087 17.7485Z" fill="white"/>
<path d="M14.7087 17.7485L17.7453 14.711C17.7489 14.7073 17.7533 14.7043 17.7581 14.7023C17.763 14.7003 17.7681 14.6992 17.7734 14.6992C17.7786 14.6992 17.7838 14.7003 17.7886 14.7023C17.7935 14.7043 17.7978 14.7073 17.8015 14.711L18.1868 15.0973C18.1906 15.101 18.1935 15.1053 18.1956 15.1102C18.1976 15.115 18.1986 15.1202 18.1986 15.1254C18.1986 15.1307 18.1976 15.1358 18.1956 15.1407C18.1935 15.1455 18.1906 15.1499 18.1868 15.1535L14.7078 18.6326C14.7041 18.6363 14.6997 18.6393 14.6949 18.6413C14.6901 18.6434 14.6849 18.6444 14.6796 18.6444C14.6744 18.6444 14.6692 18.6434 14.6644 18.6413C14.6595 18.6393 14.6552 18.6363 14.6515 18.6326L12.9415 16.9217C12.9378 16.918 12.9348 16.9136 12.9328 16.9088C12.9307 16.904 12.9297 16.8988 12.9297 16.8935C12.9297 16.8883 12.9307 16.8831 12.9328 16.8783C12.9348 16.8735 12.9378 16.8691 12.9415 16.8654L13.3268 16.4773C13.3305 16.4735 13.3349 16.4706 13.3397 16.4685C13.3445 16.4665 13.3497 16.4655 13.3549 16.4655C13.3602 16.4655 13.3654 16.4665 13.3702 16.4685C13.375 16.4706 13.3794 16.4735 13.3831 16.4773L14.6524 17.7485C14.6561 17.7523 14.6605 17.7553 14.6653 17.7573C14.6701 17.7593 14.6753 17.7604 14.6806 17.7604C14.6858 17.7604 14.691 17.7593 14.6958 17.7573C14.7007 17.7553 14.705 17.7523 14.7087 17.7485Z" fill="#17202C"/>
</svg>
