<svg width="15" height="16" viewBox="0 0 15 16" fill="none" xmlns="http://www.w3.org/2000/svg">
<path d="M9.81178 14.893C9.34034 15.1991 9.19759 14.6265 8.91329 14.4165C8.47304 14.0887 7.84565 14.1344 7.47978 14.5761C7.18708 14.929 6.73363 14.743 6.73963 14.2808C6.74603 13.8287 6.74203 13.3733 6.72764 12.9148L6.71804 12.1705L6.74443 11.0578C6.74523 10.997 6.71564 10.9666 6.65566 10.9666H2.52308C2.48149 10.9666 2.4607 10.9874 2.4607 11.029V15.2267C2.4671 15.2787 2.4443 15.3355 2.39232 15.3972C2.21358 15.6096 1.93648 15.4668 1.93648 15.2063C1.93248 13.6954 1.93448 12.3218 1.94248 11.0854C1.94328 11.0206 1.91249 10.9806 1.85011 10.9654C1.5778 10.8957 1.42545 10.7109 1.42665 10.4192C1.42825 10.0711 1.43105 9.73378 1.43505 9.40728C1.43663 9.27174 1.49154 9.1423 1.58789 9.04702C1.68423 8.95174 1.81422 8.89831 1.94967 8.89832L6.63047 8.89352C6.65401 8.89352 6.67659 8.88428 6.69324 8.86785C6.70989 8.85142 6.71924 8.82913 6.71924 8.80589L6.72164 3.01527C6.72164 3.00667 6.71823 2.99843 6.71215 2.99235C6.70608 2.98627 6.69784 2.98286 6.68925 2.98286L0.566549 2.97686C0.555095 2.97686 0.544111 2.98141 0.536012 2.98951C0.527913 2.99762 0.523363 3.00861 0.523363 3.02007L0.519765 15.2843C0.519791 15.3273 0.506024 15.3691 0.480515 15.4035C0.455007 15.4379 0.419123 15.463 0.378213 15.4752C0.318234 15.4928 0.260654 15.4948 0.205472 15.4812C0.0703188 15.4492 0.00274193 15.3635 0.00274193 15.2243C-0.00045697 10.6981 -0.00085686 6.06903 0.00154232 1.33714C0.00274191 0.655329 0.482577 0.502881 1.07757 0.502881C5.42248 0.498079 9.77659 0.49928 14.1399 0.506482C14.5981 0.507682 14.9928 0.799374 14.9928 1.27592C14.9952 6.15746 14.9976 10.7977 15 15.1967C15 15.3535 14.924 15.45 14.7721 15.486C14.7425 15.4932 14.7133 15.4932 14.6845 15.486C14.6316 15.4719 14.5844 15.4417 14.5496 15.3998C14.5147 15.3578 14.4939 15.3061 14.4902 15.2519C14.4074 14.1176 13.0903 13.8115 12.5049 14.7766C12.4101 14.9338 12.2098 15.043 12.0286 14.9686C11.7743 14.8642 11.7263 14.5845 11.52 14.4369C11.0849 14.1288 10.6651 14.1144 10.2604 14.3936C10.0829 14.5161 9.94853 14.7189 9.81178 14.893ZM0.508968 1.2051L0.511368 2.29024C0.511368 2.33386 0.528682 2.37569 0.559503 2.40653C0.590323 2.43737 0.632125 2.45469 0.675711 2.45469L14.2347 2.43069C14.3019 2.43058 14.3663 2.42282 14.414 2.4091C14.4616 2.39538 14.4886 2.37681 14.489 2.35746L14.4866 1.08987C14.4868 1.08021 14.4803 1.07066 14.4676 1.06175C14.4549 1.05284 14.4362 1.04475 14.4126 1.03794C14.389 1.03114 14.3609 1.02575 14.3299 1.0221C14.299 1.01844 14.2658 1.01659 14.2323 1.01664L0.673312 1.04065C0.629725 1.04065 0.587924 1.05798 0.557104 1.08882C0.526283 1.11966 0.508968 1.16149 0.508968 1.2051ZM9.81898 9.7902L9.83337 13.9687C9.83346 13.9773 9.83587 13.9858 9.84034 13.9932C9.84482 14.0005 9.8512 14.0066 9.85881 14.0106C9.86642 14.0147 9.87498 14.0166 9.88359 14.0162C9.8922 14.0158 9.90055 14.0131 9.90775 14.0083C10.5499 13.5658 11.1913 13.5714 11.8319 14.0251C11.8363 14.0281 11.8415 14.0299 11.8469 14.0302C11.8522 14.0306 11.8576 14.0294 11.8624 14.027C11.8672 14.0245 11.8712 14.0208 11.8741 14.0163C11.8769 14.0117 11.8785 14.0065 11.8787 14.0011L11.9039 5.6609C11.9039 5.62419 11.9156 5.58808 11.9375 5.55767C12.0678 5.37761 12.2034 5.36481 12.3441 5.51926C12.3904 5.57026 12.4161 5.6366 12.4161 5.70531V13.9711C12.4161 14.0439 12.4445 14.0575 12.5013 14.0119C13.0795 13.5462 13.852 13.6014 14.4326 14.0335C14.4379 14.0375 14.4442 14.0398 14.4508 14.0403C14.4574 14.0408 14.464 14.0394 14.4699 14.0363C14.4759 14.0332 14.4809 14.0285 14.4845 14.0227C14.488 14.017 14.49 14.0103 14.4902 14.0035L14.4866 3.05248C14.4866 2.99646 14.459 2.96846 14.4038 2.96846L7.29024 2.98886C7.283 2.98886 7.27582 2.99029 7.26913 2.99306C7.26243 2.99584 7.25635 2.99991 7.25122 3.00503C7.2461 3.01016 7.24204 3.01625 7.23926 3.02295C7.23649 3.02965 7.23506 3.03683 7.23506 3.04408L7.23266 13.9951C7.23266 14.0503 7.25505 14.0615 7.29984 14.0287C7.92842 13.5662 8.5734 13.5602 9.23478 14.0107C9.28516 14.0451 9.31035 14.0315 9.31035 13.9699L9.32475 9.7902C9.32495 9.73588 9.34504 9.68349 9.38125 9.64283C9.41747 9.60217 9.46732 9.57604 9.52148 9.56933L9.56107 9.56333C9.73221 9.54172 9.81818 9.61734 9.81898 9.7902ZM6.74443 9.53452C6.74443 9.50395 6.7323 9.47464 6.7107 9.45303C6.6891 9.43142 6.65981 9.41928 6.62927 9.41928H2.05164C2.0211 9.41928 1.99181 9.43142 1.97021 9.45303C1.94861 9.47464 1.93648 9.50395 1.93648 9.53452V10.3436C1.93648 10.3587 1.93946 10.3737 1.94525 10.3877C1.95103 10.4017 1.95952 10.4144 1.97021 10.4251C1.9809 10.4358 1.9936 10.4442 2.00757 10.45C2.02154 10.4558 2.03652 10.4588 2.05164 10.4588H6.62927C6.64439 10.4588 6.65937 10.4558 6.67334 10.45C6.68731 10.4442 6.70001 10.4358 6.7107 10.4251C6.7214 10.4144 6.72988 10.4017 6.73566 10.3877C6.74145 10.3737 6.74443 10.3587 6.74443 10.3436V9.53452Z" fill="#17202C"/>
<path d="M4.79162 4.20867C4.82361 4.49196 4.71605 4.63761 4.46894 4.64561C3.86514 4.66722 3.27614 4.67442 2.70194 4.66722C2.66998 4.66674 2.63823 4.67263 2.60856 4.68454C2.57889 4.69645 2.55189 4.71415 2.52911 4.7366C2.50634 4.75905 2.48826 4.78581 2.47592 4.81532C2.46358 4.84483 2.45722 4.8765 2.45722 4.90849L2.46082 7.18801C2.46114 7.25943 2.48959 7.32782 2.53995 7.37821C2.59031 7.4286 2.65847 7.45689 2.72953 7.45689L5.06873 7.4593C5.12515 7.4593 5.17928 7.43695 5.21929 7.39714C5.2593 7.35733 5.28194 7.30329 5.28226 7.24683C5.28466 6.91072 5.29265 6.56621 5.30625 6.2133C5.31584 5.97883 5.46019 5.8936 5.7393 5.95762C5.87285 6.43537 5.89805 6.90552 5.81487 7.36807C5.7365 7.8066 5.42261 8.02547 4.8732 8.02467C4.2846 8.02307 3.63882 8.02347 2.93586 8.02587C2.40324 8.02827 1.9378 7.81701 1.9354 7.24923C1.9338 6.5338 1.93061 5.80478 1.92581 5.06214C1.92261 4.44595 2.22051 4.12425 2.8195 4.09704C3.53366 4.06503 4.19103 4.10224 4.79162 4.20867Z" fill="#17202C"/>
<path d="M5.65451 5.06151L4.09505 6.74564C3.95509 6.89769 3.81194 6.90049 3.66559 6.75404L2.93384 6.02181C2.9117 5.99966 2.89454 5.9735 2.88346 5.94499C2.7787 5.6785 2.79669 5.53166 2.93744 5.50445C3.07979 5.47644 3.20095 5.51485 3.30092 5.61968L3.80595 6.14785C3.81234 6.15465 3.82005 6.16006 3.82861 6.16376C3.83718 6.16746 3.8464 6.16937 3.85573 6.16937C3.86505 6.16937 3.87428 6.16746 3.88284 6.16376C3.8914 6.16006 3.89912 6.15465 3.90551 6.14785L5.49856 4.46012C5.60413 4.32408 5.72689 4.28206 5.86684 4.33408C5.90086 4.34657 5.93176 4.36633 5.95739 4.39198C5.98303 4.41764 6.0028 4.44859 6.01534 4.48271C6.02788 4.51682 6.0329 4.55329 6.03004 4.58959C6.02719 4.62589 6.01653 4.66117 5.99879 4.69299C5.90763 4.85464 5.79286 4.97748 5.65451 5.06151Z" fill="#17202C"/>
<path d="M6.20756 11.8081C6.15558 11.9361 6.07681 12.0001 5.97124 12.0001C5.2155 11.9969 4.45616 11.9985 3.69322 12.0049C3.67689 12.0052 3.66134 12.0118 3.6499 12.0233C3.63846 12.0347 3.63205 12.0501 3.63205 12.0662L3.62245 13.341C3.62245 13.389 3.64644 13.4134 3.69442 13.4142C4.46456 13.4214 5.2235 13.421 5.97124 13.413C6.07441 13.4114 6.14598 13.4642 6.18597 13.5714C6.24355 13.8115 6.17238 13.9319 5.97244 13.9327C5.13193 13.9375 4.339 13.9375 3.59366 13.9327C3.47342 13.932 3.35804 13.8853 3.27125 13.8022C3.18446 13.7192 3.13285 13.6061 3.12702 13.4862C3.10863 13.0821 3.10103 12.6415 3.10423 12.1646C3.10663 11.73 3.24578 11.5008 3.71482 11.49C4.78645 11.4644 5.54899 11.4672 6.00243 11.4984C6.14398 11.5088 6.21236 11.612 6.20756 11.8081Z" fill="#17202C"/>
</svg>
