<svg width="24" height="24" viewBox="0 0 24 24" fill="none" xmlns="http://www.w3.org/2000/svg">
<path d="M12.8572 5.92887L16.5348 9.6065C16.6144 9.68631 16.709 9.74962 16.8131 9.79282C16.9172 9.83603 17.0288 9.85826 17.1415 9.85826C17.2542 9.85826 17.3658 9.83603 17.47 9.79282C17.5741 9.74962 17.6686 9.68631 17.7482 9.6065C17.828 9.5269 17.8914 9.43233 17.9346 9.32822C17.9778 9.22411 18 9.11249 18 8.99978C18 8.88706 17.9778 8.77544 17.9346 8.67133C17.8914 8.56722 17.828 8.47265 17.7482 8.39305L12.6065 3.25131C12.4456 3.0904 12.2273 3 11.9998 3C11.7722 3 11.554 3.0904 11.393 3.25131L11.3768 3.26805L6.25131 8.3935C6.0904 8.55441 6 8.77266 6 9.00022C6 9.22779 6.0904 9.44604 6.25131 9.60695C6.41223 9.76786 6.63047 9.85826 6.85804 9.85826C7.0856 9.85826 7.30385 9.76786 7.46476 9.60695L11.1432 5.92847V19.2822C11.1432 19.5094 11.2335 19.7274 11.3942 19.8881C11.555 20.0488 11.7729 20.1391 12.0002 20.1391C12.2275 20.1391 12.4455 20.0488 12.6062 19.8881C12.7669 19.7274 12.8572 19.5094 12.8572 19.2822V5.92887Z" fill="#009933"/>
</svg>
